<?xml version="1.0" encoding="UTF-8" standalone="no"?>
<!-- Created with Inkscape (http://www.inkscape.org/) -->

<svg
   width="2048"
   height="1024"
   viewBox="0 0 541.86666 270.93334"
   version="1.1"
   id="svg5"
   inkscape:version="1.1.2 (0a00cf5339, 2022-02-04)"
   sodipodi:docname="baby_yaw_mobile_rotation.svg"
   xmlns:inkscape="http://www.inkscape.org/namespaces/inkscape"
   xmlns:sodipodi="http://sodipodi.sourceforge.net/DTD/sodipodi-0.dtd"
   xmlns="http://www.w3.org/2000/svg"
   xmlns:svg="http://www.w3.org/2000/svg">
  <sodipodi:namedview
     id="namedview7"
     pagecolor="#ffffff"
     bordercolor="#666666"
     borderopacity="1.0"
     inkscape:pageshadow="2"
     inkscape:pageopacity="0.0"
     inkscape:pagecheckerboard="0"
     inkscape:document-units="mm"
     showgrid="false"
     inkscape:zoom="0.38796647"
     inkscape:cx="846.72266"
     inkscape:cy="871.20931"
     inkscape:window-width="1916"
     inkscape:window-height="1035"
     inkscape:window-x="0"
     inkscape:window-y="18"
     inkscape:window-maximized="1"
     inkscape:current-layer="layer1"
     width="1024px"
     units="px" />
  <defs
     id="defs2">
    <marker
       style="overflow:visible"
       id="marker11532"
       refX="0.0"
       refY="0.0"
       orient="auto"
       inkscape:stockid="Arrow2Sstart"
       inkscape:isstock="true">
      <path
         transform="scale(0.3) translate(-2.3,0)"
         d="M 8.7185878,4.0337352 L -2.2072895,0.016013256 L 8.7185884,-4.0017078 C 6.9730900,-1.6296469 6.9831476,1.6157441 8.7185878,4.0337352 z "
         style="stroke:context-stroke;fill-rule:evenodd;fill:context-stroke;stroke-width:0.62500000;stroke-linejoin:round"
         id="path11530" />
    </marker>
    <marker
       style="overflow:visible;"
       id="marker11446"
       refX="0.0"
       refY="0.0"
       orient="auto"
       inkscape:stockid="Arrow2Send"
       inkscape:isstock="true">
      <path
         transform="scale(0.3) rotate(180) translate(-2.3,0)"
         d="M 8.7185878,4.0337352 L -2.2072895,0.016013256 L 8.7185884,-4.0017078 C 6.9730900,-1.6296469 6.9831476,1.6157441 8.7185878,4.0337352 z "
         style="stroke:context-stroke;fill-rule:evenodd;fill:context-stroke;stroke-width:0.62500000;stroke-linejoin:round;"
         id="path11444" />
    </marker>
    <marker
       style="overflow:visible"
       id="Arrow2Sstart"
       refX="0.0"
       refY="0.0"
       orient="auto"
       inkscape:stockid="Arrow2Sstart"
       inkscape:isstock="true">
      <path
         transform="scale(0.3) translate(-2.3,0)"
         d="M 8.7185878,4.0337352 L -2.2072895,0.016013256 L 8.7185884,-4.0017078 C 6.9730900,-1.6296469 6.9831476,1.6157441 8.7185878,4.0337352 z "
         style="stroke:context-stroke;fill-rule:evenodd;fill:context-stroke;stroke-width:0.62500000;stroke-linejoin:round"
         id="path9162" />
    </marker>
    <marker
       style="overflow:visible"
       id="Arrow2Mstart"
       refX="0.0"
       refY="0.0"
       orient="auto"
       inkscape:stockid="Arrow2Mstart"
       inkscape:isstock="true">
      <path
         transform="scale(0.6) translate(0,0)"
         d="M 8.7185878,4.0337352 L -2.2072895,0.016013256 L 8.7185884,-4.0017078 C 6.9730900,-1.6296469 6.9831476,1.6157441 8.7185878,4.0337352 z "
         style="stroke:context-stroke;fill-rule:evenodd;fill:context-stroke;stroke-width:0.62500000;stroke-linejoin:round"
         id="path9156" />
    </marker>
    <marker
       style="overflow:visible;"
       id="Arrow2Send"
       refX="0.0"
       refY="0.0"
       orient="auto"
       inkscape:stockid="Arrow2Send"
       inkscape:isstock="true">
      <path
         transform="scale(0.3) rotate(180) translate(-2.3,0)"
         d="M 8.7185878,4.0337352 L -2.2072895,0.016013256 L 8.7185884,-4.0017078 C 6.9730900,-1.6296469 6.9831476,1.6157441 8.7185878,4.0337352 z "
         style="stroke:context-stroke;fill-rule:evenodd;fill:context-stroke;stroke-width:0.62500000;stroke-linejoin:round;"
         id="path9165" />
    </marker>
    <marker
       style="overflow:visible;"
       id="marker11324"
       refX="0.0"
       refY="0.0"
       orient="auto"
       inkscape:stockid="Arrow1Mend"
       inkscape:isstock="true">
      <path
         transform="scale(0.4) rotate(180) translate(10,0)"
         style="fill-rule:evenodd;fill:context-stroke;stroke:context-stroke;stroke-width:1.0pt;"
         d="M 0.0,0.0 L 5.0,-5.0 L -12.5,0.0 L 5.0,5.0 L 0.0,0.0 z "
         id="path11322" />
    </marker>
    <marker
       style="overflow:visible"
       id="marker11314"
       refX="0.0"
       refY="0.0"
       orient="auto"
       inkscape:stockid="Arrow1Mstart"
       inkscape:isstock="true">
      <path
         transform="scale(0.4) translate(10,0)"
         style="fill-rule:evenodd;fill:context-stroke;stroke:context-stroke;stroke-width:1.0pt"
         d="M 0.0,0.0 L 5.0,-5.0 L -12.5,0.0 L 5.0,5.0 L 0.0,0.0 z "
         id="path11312" />
    </marker>
    <marker
       style="overflow:visible;"
       id="Arrow1Mend"
       refX="0.0"
       refY="0.0"
       orient="auto"
       inkscape:stockid="Arrow1Mend"
       inkscape:isstock="true">
      <path
         transform="scale(0.4) rotate(180) translate(10,0)"
         style="fill-rule:evenodd;fill:context-stroke;stroke:context-stroke;stroke-width:1.0pt;"
         d="M 0.0,0.0 L 5.0,-5.0 L -12.5,0.0 L 5.0,5.0 L 0.0,0.0 z "
         id="path9141" />
    </marker>
    <marker
       style="overflow:visible"
       id="Arrow1Mstart"
       refX="0.0"
       refY="0.0"
       orient="auto"
       inkscape:stockid="Arrow1Mstart"
       inkscape:isstock="true">
      <path
         transform="scale(0.4) translate(10,0)"
         style="fill-rule:evenodd;fill:context-stroke;stroke:context-stroke;stroke-width:1.0pt"
         d="M 0.0,0.0 L 5.0,-5.0 L -12.5,0.0 L 5.0,5.0 L 0.0,0.0 z "
         id="path9138" />
    </marker>
    <marker
       style="overflow:visible;"
       id="Arrow1Lend"
       refX="0.0"
       refY="0.0"
       orient="auto"
       inkscape:stockid="Arrow1Lend"
       inkscape:isstock="true">
      <path
         transform="scale(0.8) rotate(180) translate(12.5,0)"
         style="fill-rule:evenodd;fill:context-stroke;stroke:context-stroke;stroke-width:1.0pt;"
         d="M 0.0,0.0 L 5.0,-5.0 L -12.5,0.0 L 5.0,5.0 L 0.0,0.0 z "
         id="path9135" />
    </marker>
    <marker
       style="overflow:visible"
       id="Arrow1Lstart"
       refX="0.0"
       refY="0.0"
       orient="auto"
       inkscape:stockid="Arrow1Lstart"
       inkscape:isstock="true">
      <path
         transform="scale(0.8) translate(12.5,0)"
         style="fill-rule:evenodd;fill:context-stroke;stroke:context-stroke;stroke-width:1.0pt"
         d="M 0.0,0.0 L 5.0,-5.0 L -12.5,0.0 L 5.0,5.0 L 0.0,0.0 z "
         id="path9132" />
    </marker>
    <marker
       style="overflow:visible"
       id="Arrow1Lstart-1"
       refX="0"
       refY="0"
       orient="auto"
       inkscape:stockid="Arrow1Lstart"
       inkscape:isstock="true">
      <path
         transform="matrix(0.8,0,0,0.8,10,0)"
         style="fill:context-stroke;fill-rule:evenodd;stroke:context-stroke;stroke-width:1pt"
         d="M 0,0 5,-5 -12.5,0 5,5 Z"
         id="path9132-9" />
    </marker>
    <marker
       style="overflow:visible"
       id="Arrow1Lend-1"
       refX="0"
       refY="0"
       orient="auto"
       inkscape:stockid="Arrow1Lend"
       inkscape:isstock="true">
      <path
         transform="matrix(-0.8,0,0,-0.8,-10,0)"
         style="fill:context-stroke;fill-rule:evenodd;stroke:context-stroke;stroke-width:1pt"
         d="M 0,0 5,-5 -12.5,0 5,5 Z"
         id="path9135-2" />
    </marker>
  </defs>
  <g
     inkscape:label="Layer 1"
     inkscape:groupmode="layer"
     id="layer1">
    <path
       style="fill:#d0d0d0;fill-opacity:1;stroke-width:0.299561"
       d="m 140.92486,279.16055 c 0,-0.0622 0.2359,-0.29811 0.52424,-0.52424 0.47512,-0.37261 0.48571,-0.36202 0.11311,0.11311 -0.39134,0.499 -0.63733,0.65768 -0.63733,0.41114 z m 7.41414,-2.5001 c 0.53546,-0.0665 1.41169,-0.0665 1.94715,0 0.53547,0.0665 0.0974,0.12082 -0.97357,0.12082 -1.07094,0 -1.50904,-0.0543 -0.97358,-0.12082 z m 12.00118,-1.18618 c 0.21625,-0.0865 0.47461,-0.0759 0.57416,0.0237 0.0995,0.0995 -0.0774,0.17034 -0.39318,0.15733 -0.34897,-0.0144 -0.41996,-0.0854 -0.18098,-0.18098 z m -28.34376,-4.13901 c 0.006,-0.49427 0.0733,-0.6602 0.14919,-0.36874 0.076,0.29146 0.071,0.69587 -0.0113,0.89868 -0.0821,0.20281 -0.1442,-0.0357 -0.13809,-0.52994 z m 53.63257,-23.21599 c 0,-0.57666 0.0617,-0.81257 0.13699,-0.52423 0.0754,0.28833 0.0754,0.76014 0,1.04846 -0.0753,0.28833 -0.13699,0.0524 -0.13699,-0.52423 z M -4.614622,230.1456 c 0,-0.4119 0.068,-0.5804 0.151096,-0.37446 0.0831,0.20595 0.0831,0.54296 0,0.74891 -0.0831,0.20595 -0.151096,0.0375 -0.151096,-0.37445 z m 202.156562,-3.70785 c 0,-0.0622 0.23591,-0.29811 0.52423,-0.52423 0.47513,-0.37262 0.48573,-0.36202 0.11311,0.11311 -0.39133,0.49899 -0.63734,0.65767 -0.63734,0.41112 z m -0.33777,-14.19095 c -0.37262,-0.47511 -0.36202,-0.48571 0.11311,-0.11311 0.28834,0.22613 0.52424,0.46203 0.52424,0.52424 0,0.24654 -0.246,0.0879 -0.63734,-0.41114 z m -1.48226,-1.79737 -0.72624,-0.82379 0.8238,0.72623 c 0.45308,0.39943 0.8238,0.77014 0.8238,0.8238 0,0.23493 -0.2426,0.0437 -0.92136,-0.72624 z m -2.2525,-2.54626 -0.57067,-0.67402 0.67401,0.57066 c 0.63341,0.53628 0.8104,0.77737 0.57067,0.77737 -0.0568,0 -0.36016,-0.3033 -0.67401,-0.67401 z m -1.05821,-1.34803 c -0.37262,-0.47512 -0.36203,-0.48571 0.1131,-0.11311 0.499,0.39135 0.65769,0.63734 0.41114,0.63734 -0.0622,0 -0.29811,-0.2359 -0.52423,-0.52423 z m -5.86326,-17.14989 c 0,-0.90617 0.0562,-1.27687 0.1248,-0.82379 0.0686,0.45309 0.0686,1.19451 0,1.64759 -0.0686,0.45309 -0.1248,0.0824 -0.1248,-0.8238 z m 0.29957,-6.8899 c 0,-0.90618 0.0562,-1.27688 0.12479,-0.8238 0.0686,0.45309 0.0686,1.1945 0,1.64759 -0.0686,0.45308 -0.12479,0.0824 -0.12479,-0.82379 z m -0.005,-8.83706 c 0.002,-0.82379 0.0605,-1.12525 0.12928,-0.66989 0.0688,0.45535 0.067,1.12936 -0.005,1.4978 -0.0711,0.36844 -0.12744,-0.005 -0.1252,-0.82791 z m -0.66115,-5.71663 c 0.0144,-0.34896 0.0854,-0.41995 0.18098,-0.18098 0.0865,0.21624 0.0759,0.47462 -0.0237,0.57415 -0.0995,0.0995 -0.17035,-0.0773 -0.15734,-0.39317 z m -12.04388,-27.01043 c -0.37261,-0.47513 -0.36202,-0.48573 0.11311,-0.11311 0.49899,0.39133 0.65768,0.63733 0.41113,0.63733 -0.0622,0 -0.29812,-0.23591 -0.52423,-0.52423 z m -1.32866,-1.64759 -0.87983,-0.97358 0.97356,0.87984 c 0.53548,0.48391 0.97358,0.92202 0.97358,0.97357 0,0.23143 -0.24718,0.0277 -1.06731,-0.87983 z m -3.58392,-3.89431 -2.0889,-2.1718 2.17182,2.08888 c 1.1945,1.1489 2.17182,2.12622 2.17182,2.17182 0,0.21974 -0.31457,-0.0717 -2.25474,-2.0889 z m -22.03239,0.44935 -0.72623,-0.82379 0.82379,0.72623 c 0.76996,0.67877 0.96117,0.92135 0.72623,0.92135 -0.0537,0 -0.42436,-0.3707 -0.82379,-0.82379 z m 17.97368,-4.19386 -0.72623,-0.82379 0.82379,0.72623 c 0.76996,0.67878 0.96118,0.92136 0.72623,0.92136 -0.0537,0 -0.42437,-0.3707 -0.82379,-0.8238 z m -1.65338,-1.34802 -0.57066,-0.67401 0.67401,0.57065 c 0.3707,0.31387 0.67401,0.61718 0.67401,0.67402 0,0.23972 -0.24108,0.0627 -0.77736,-0.57066 z m -1.65734,-1.34803 c -0.37262,-0.47512 -0.36202,-0.48572 0.11311,-0.11311 0.28833,0.22612 0.52423,0.46203 0.52423,0.52423 0,0.24656 -0.24599,0.0879 -0.63733,-0.41112 z m -1.19825,-0.89869 c -0.37261,-0.47511 -0.36202,-0.48571 0.11311,-0.1131 0.49899,0.39134 0.65768,0.63734 0.41112,0.63734 -0.0622,0 -0.29811,-0.23591 -0.52423,-0.52424 z m -11.64468,-6.96479 c -0.57665,-0.31571 -0.91366,-0.57402 -0.74889,-0.57402 0.16476,0 0.77137,0.25831 1.34802,0.57402 0.57665,0.3157 0.91366,0.57401 0.7489,0.57401 -0.16475,0 -0.77136,-0.25831 -1.34803,-0.57401 z m -3.89429,-1.79737 c -0.24714,-0.15971 -0.31454,-0.29039 -0.14978,-0.29039 0.16476,0 0.50177,0.13068 0.74891,0.29039 0.24713,0.15972 0.31453,0.29039 0.14977,0.29039 -0.16475,0 -0.50176,-0.13067 -0.7489,-0.29039 z m -1.49781,-0.59913 c -0.24714,-0.15971 -0.31454,-0.29038 -0.14978,-0.29038 0.16476,0 0.50177,0.13067 0.7489,0.29038 0.24714,0.15972 0.31454,0.29039 0.14978,0.29039 -0.16475,0 -0.50175,-0.13067 -0.7489,-0.29039 z m -1.4978,-0.59911 c -0.24714,-0.15972 -0.31454,-0.29039 -0.14978,-0.29039 0.16476,0 0.50176,0.13067 0.74889,0.29039 0.24715,0.15971 0.31455,0.29038 0.14979,0.29038 -0.16475,0 -0.50176,-0.13067 -0.7489,-0.29038 z m -58.788903,-0.81583 c 0.535466,-0.0665 1.411681,-0.0665 1.947144,0 0.535474,0.0665 0.09737,0.12083 -0.973568,0.12083 -1.070934,0 -1.509042,-0.0543 -0.973576,-0.12083 z m 52.442413,-1.18617 c 0.21624,-0.0865 0.47462,-0.0759 0.57417,0.0237 0.0995,0.0995 -0.0774,0.17034 -0.39318,0.15733 -0.34897,-0.0144 -0.41996,-0.0854 -0.18099,-0.18098 z m -2.69605,-0.59913 c 0.21624,-0.0865 0.47462,-0.0759 0.57416,0.0237 0.0995,0.0995 -0.0773,0.17034 -0.39318,0.15734 -0.34897,-0.0144 -0.41996,-0.0854 -0.18098,-0.18098 z m -1.49781,-0.29956 c 0.21625,-0.0865 0.47462,-0.0759 0.57416,0.0237 0.0995,0.0995 -0.0774,0.17033 -0.39317,0.15733 -0.34897,-0.0144 -0.41995,-0.0854 -0.18098,-0.18099 z m -1.96017,-0.30252 c 0.29146,-0.076 0.69587,-0.071 0.89868,0.0113 0.20282,0.0821 -0.0357,0.1442 -0.52993,0.1381 -0.49428,-0.006 -0.66021,-0.0733 -0.36875,-0.14919 z m -2.09692,-0.29956 c 0.29146,-0.076 0.69586,-0.071 0.89868,0.0113 0.20281,0.0821 -0.0357,0.1442 -0.52994,0.1381 -0.49427,-0.006 -0.66022,-0.0733 -0.36874,-0.1492 z m -2.3965,-0.29957 c 0.29146,-0.076 0.69587,-0.071 0.89868,0.0113 0.20282,0.0821 -0.0357,0.14421 -0.52993,0.1381 -0.49428,-0.006 -0.66021,-0.0733 -0.36875,-0.14919 z m -18.57849,-0.30652 c 0.45308,-0.0686 1.19449,-0.0686 1.64759,0 0.45308,0.0686 0.0824,0.12479 -0.8238,0.12479 -0.90617,0 -1.27688,-0.0562 -0.82379,-0.12479 z m 15.57718,0.008 c 0.28832,-0.0754 0.76013,-0.0754 1.04847,0 0.28831,0.0754 0.0524,0.13699 -0.52424,0.13699 -0.57666,0 -0.81256,-0.0616 -0.52423,-0.13699 z m -9.11789,-0.2977 c 0.21624,-0.0865 0.47462,-0.0759 0.57416,0.0237 0.0995,0.0995 -0.0774,0.17034 -0.39318,0.15733 -0.34898,-0.0144 -0.41995,-0.0854 -0.18098,-0.18098 z"
       id="path735" />
    <path
       style="fill:#b9b9b9;fill-opacity:1;stroke-width:0.264583"
       d="m 40.806731,221.71581 c 0.341775,-0.3638 0.680939,-0.66145 0.7537,-0.66145 0.07276,0 -0.147341,0.29765 -0.489117,0.66145 -0.341775,0.36381 -0.680939,0.66146 -0.7537,0.66146 -0.07276,0 0.147341,-0.29765 0.489117,-0.66146 z M 187.08756,221.1205 c -0.32911,-0.41965 -0.31975,-0.42899 0.0999,-0.0999 0.25466,0.19974 0.46302,0.4081 0.46302,0.46303 0,0.21777 -0.21727,0.0776 -0.56291,-0.36312 z M 24.95262,151.05002 c 0.0127,-0.30823 0.07539,-0.37092 0.159851,-0.15986 0.07643,0.191 0.06703,0.4192 -0.02088,0.50712 -0.08792,0.0879 -0.150452,-0.0684 -0.138964,-0.34726 z M 97.763326,51.537675 c 0.257431,-0.06708 0.614619,-0.06267 0.793749,0.0098 0.179131,0.07248 -0.03149,0.127362 -0.468055,0.12197 -0.436563,-0.0054 -0.583126,-0.06469 -0.325694,-0.131773 z"
       id="path733" />
    <path
       style="fill:#767676;fill-opacity:1;stroke-width:0.299561"
       d="m 139.6884,283.5424 c -0.37261,-0.47513 -0.36202,-0.48573 0.11311,-0.11311 0.28833,0.22612 0.52423,0.46203 0.52423,0.52423 0,0.24655 -0.246,0.0879 -0.63734,-0.41112 z m -39.12372,-79.36667 c 0.29147,-0.076 0.69588,-0.071 0.89869,0.0113 0.20281,0.0821 -0.0357,0.14421 -0.52994,0.1381 -0.49427,-0.006 -0.66021,-0.0733 -0.36875,-0.14919 z M 1.376603,183.11446 c 0,-0.41189 0.068,-0.5804 0.151096,-0.37444 0.0831,0.20595 0.0831,0.54295 0,0.7489 -0.0831,0.20596 -0.151096,0.0375 -0.151096,-0.37446 z m -0.02364,-1.67254 c 0.01438,-0.34898 0.08536,-0.41995 0.180982,-0.18098 0.08653,0.21624 0.07589,0.47462 -0.02364,0.57415 -0.09954,0.0995 -0.170343,-0.0773 -0.157336,-0.39317 z M 48.285537,76.845181 c 7.62009,-0.04449 20.089329,-0.04449 27.709419,0 7.62009,0.04449 1.385471,0.08095 -13.85471,0.08095 -15.24018,0 -21.4748,-0.03646 -13.854709,-0.08095 z m 56.317523,-1.1e-5 c 8.11437,-0.04438 21.39241,-0.04438 29.50678,0 8.11436,0.04438 1.47535,0.08061 -14.75339,0.08061 -16.22874,0 -22.867755,-0.03623 -14.75339,-0.08061 z"
       id="path727" />
    <path
       style="fill:#606060;fill-opacity:1;stroke-width:0.299561"
       d="m 89.044592,117.30592 c 0.21625,-0.0865 0.474618,-0.0759 0.574161,0.0237 0.09952,0.0995 -0.07733,0.17034 -0.393168,0.15734 -0.348978,-0.0144 -0.419955,-0.0854 -0.180993,-0.18098 z m -51.8241,-44.634629 c 0.216244,-0.0865 0.474619,-0.07586 0.57416,0.02366 0.09954,0.09952 -0.07739,0.17034 -0.393174,0.157331 -0.348974,-0.01438 -0.419955,-0.08537 -0.180986,-0.180983 z m 1.198244,0 c 0.216245,-0.0865 0.47462,-0.07586 0.574161,0.02366 0.09954,0.09952 -0.07739,0.17034 -0.393174,0.157331 -0.348975,-0.01438 -0.419956,-0.08537 -0.180987,-0.180983 z m 11.068539,-0.0068 c 0.372627,-0.07167 0.911838,-0.06895 1.198245,0.0057 0.286408,0.07495 -0.01849,0.133599 -0.677506,0.130271 -0.659035,-0.0034 -0.893367,-0.06465 -0.520739,-0.136317 z m 7.185978,5.89e-4 c 0.370706,-0.07144 0.977319,-0.07144 1.348026,0 0.370706,0.07144 0.0674,0.129829 -0.674014,0.129829 -0.741414,0 -1.044719,-0.05842 -0.674012,-0.129829 z m 21.123189,-0.0034 c 0.455351,-0.06884 1.129364,-0.06703 1.497806,0.0045 0.368443,0.0711 -0.0042,0.12744 -0.827912,0.125199 -0.823794,-0.0023 -1.125245,-0.06046 -0.669894,-0.129286 z m 16.939811,0.01019 c 0.21625,-0.0865 0.474618,-0.07586 0.574161,0.02366 0.09952,0.09952 -0.07733,0.170351 -0.393168,0.157342 -0.348978,-0.01438 -0.419955,-0.08537 -0.180993,-0.180983 z m 1.49781,0 c 0.21625,-0.0865 0.474618,-0.07586 0.574161,0.02366 0.09952,0.09952 -0.07733,0.170351 -0.393179,0.157342 -0.348967,-0.01438 -0.419955,-0.08537 -0.180982,-0.180983 z m 2.396494,0 c 0.216239,-0.0865 0.474618,-0.07586 0.574162,0.02366 0.09952,0.09952 -0.07744,0.170351 -0.39318,0.157342 -0.348978,-0.01438 -0.419955,-0.08537 -0.180982,-0.180983 z m 3.880933,-0.01245 c 0.53842,-0.06669 1.34724,-0.06533 1.79737,0.0034 0.45014,0.06839 0.009,0.122912 -0.97894,0.121225 -0.98855,-0.0023 -1.35685,-0.05763 -0.81843,-0.12427 z m 2.99025,0.01868 c 0.20595,-0.0831 0.54295,-0.0831 0.74891,0 0.20595,0.0831 0.0375,0.151103 -0.37445,0.151103 -0.41191,0 -0.5804,-0.06804 -0.37446,-0.151103 z M 124.528,72.66157 c 0.45535,-0.06884 1.12936,-0.06703 1.4978,0.0045 0.36844,0.0711 -0.005,0.12744 -0.82791,0.125198 -0.82379,-0.0023 -1.12525,-0.06046 -0.66989,-0.129286 z m 2.54215,0.01653 c 0.20595,-0.0831 0.54295,-0.0831 0.7489,0 0.20595,0.0831 0.0375,0.151103 -0.37446,0.151103 -0.41189,0 -0.5804,-0.06804 -0.37444,-0.151103 z m 2.71477,-0.0057 c 0.21625,-0.0865 0.47462,-0.07586 0.57416,0.02366 0.0995,0.09952 -0.0774,0.170351 -0.39317,0.157342 -0.34898,-0.01438 -0.41995,-0.08537 -0.18099,-0.180982 z"
       id="path725" />
    <path
       id="path1"
       d="m 399.02857,59.273517 c -0.11449,0.10984 -0.12068,9.407628 -0.0118,20.661444 l 0.19394,20.461179 -2.6504,1.30332 c -2.82924,1.39138 -4.25723,2.88441 -4.64247,4.85253 l -0.1803,0.92458 -5.87822,0.79206 c -34.57177,4.65903 -67.43783,24.47649 -79.90906,48.18499 l -0.90385,1.71743 v 14.91147 c 0,12.75361 -0.0659,14.98071 -0.45351,15.39183 -0.43072,0.45624 -3.55813,7.13686 -6.95703,14.85876 -0.85443,1.94177 -1.58487,3.56579 -1.6241,3.60947 -0.083,0.0933 -11.81999,1.11959 -16.09686,1.40871 -3.31726,0.22367 -4.73662,0.73031 -5.37762,1.9184 -1.27261,2.3619 -0.71713,3.0546 7.81226,9.75026 4.13874,3.24957 7.49606,6.00523 7.45917,6.12494 -1.31027,4.28485 -4.68405,17.57981 -4.68405,18.45921 0,1.6519 1.202,2.96725 2.91165,3.18559 1.13217,0.14457 1.60293,-0.0631 6.13007,-2.7075 7.32422,-4.27805 12.02085,-6.89668 12.36762,-6.89668 0.25888,0 7.76596,4.17416 15.60489,8.67733 2.39303,1.37483 3.9889,1.33415 5.35725,-0.13489 1.21141,-1.30103 1.13532,-1.90864 -1.45545,-11.60241 -1.26474,-4.73053 -2.29887,-8.80455 -2.29887,-9.05304 0,-0.24927 2.64802,-2.48913 5.8845,-4.97825 10.50029,-8.07576 10.8055,-8.44319 9.15548,-11.03999 -0.83402,-1.31308 -1.63039,-1.4742 -10.59602,-2.14655 -10.30961,-0.77325 -10.88395,-0.84778 -11.09815,-1.44334 -0.50999,-1.41549 -7.2842,-16.51142 -7.78005,-17.33888 -0.55237,-0.92006 -0.58374,-1.75654 -0.58374,-15.63274 v -14.66002 l 1.01838,-1.72942 c 13.68891,-23.23948 43.64646,-41.01955 76.21595,-45.23435 1.93796,-0.25155 3.90886,-0.51725 4.37886,-0.59254 0.6206,-0.0988 0.90385,0.002 1.03409,0.3742 1.2428,3.52588 2.98774,5.55424 5.78249,6.72275 l 1.98349,0.82897 v 33.85328 33.85404 l -1.5857,0.35087 c -4.11442,0.91101 -8.27908,3.98967 -9.96675,7.36727 l -0.86072,1.72265 -2.60484,-0.001 c -7.59727,-0.002 -14.23734,5.46316 -15.4009,12.67682 -0.30835,1.91317 -0.41662,2.13376 -1.12826,2.29338 -2.96891,0.66708 -7.07945,4.06047 -8.48387,7.00362 -2.62214,5.49552 0.47077,12.34328 6.89269,15.26307 10.20221,0.19976 21.37773,0.23676 30.15778,0.13603 9.76009,-0.0524 18.69307,0.15821 27.89316,0.50072 13.13416,-2.6706 17.79938,-18.26345 8.21553,-27.45955 -3.34242,-3.20742 -8.25085,-5.09873 -11.96279,-4.60857 l -1.41935,0.18753 -0.3821,-2.14132 c -1.26636,-7.08643 -8.21397,-13.19106 -15.01172,-13.19029 h -0.82777 l 0.0816,-33.72832 c 0.0581,-23.99162 -0.0148,-33.78551 -0.25028,-33.92555 -0.18505,-0.10987 0.11685,-0.35463 0.68415,-0.5534 2.33577,-0.81918 3.58091,-1.60296 4.61424,-2.90775 0.97995,-1.23704 1.36991,-1.93349 2.27142,-4.05521 l 0.26036,-0.61438 5.36351,0.69494 c 34.02101,4.40682 61.99823,20.94983 75.8056,44.82476 l 1.12197,1.94026 v 25.61188 25.6119 l -1.76454,-0.68817 c -12.1966,-4.75615 -27.35585,1.59771 -31.91437,13.37554 -1.37539,3.55526 -1.63039,5.24029 -1.73396,11.47063 -0.18979,11.41421 -1.41463,13.3906 -7.10846,11.46992 -8.52702,-2.8754 -9.26688,6.31995 -0.83559,10.37893 5.96686,2.87235 13.05416,1.54047 17.6464,-3.31586 2.29259,-2.42512 3.37144,-2.9454 6.10496,-2.9454 1.1055,0 1.06316,-0.18297 1.50252,6.50595 0.68417,10.41657 1.06313,10.84646 9.56819,10.84572 8.47053,-7.5e-4 8.75533,-0.2974 9.40656,-9.78787 0.3821,-5.57383 -0.12485,-5.21092 7.27558,-5.21092 5.77856,0 6.39919,0.0879 6.90055,0.97651 0.0148,0.0293 0.11921,2.65702 0.22982,5.84035 0.28883,8.35285 0.16251,8.23688 8.80633,8.11642 l 5.84762,-0.0814 1.11099,-0.81315 c 1.44368,-1.05785 1.83284,-2.39352 2.67157,-9.18631 0.63632,-5.14918 2.57742,-15.05906 3.04109,-15.52509 0.12633,-0.1272 0.61983,0.30793 1.09611,0.9675 2.04465,2.83169 4.44865,3.81048 5.51649,2.24668 0.6685,-0.97954 0.37036,-1.5209 -2.12546,-3.8647 -2.80652,-2.63519 -4.11365,-5.02421 -5.37608,-9.82253 -3.28826,-12.50138 -10.1943,-17.61293 -26.31938,-19.48165 l -5.86879,-0.68062 v -26.19877 -26.19841 l -1.18554,-2.33703 c -8.78044,-17.30877 -30.62994,-34.2802 -54.13496,-42.04876 -8.75063,-2.89195 -25.27036,-6.3162 -30.47383,-6.3162 -0.14975,0 -0.57354,-0.59556 -0.94071,-1.32363 -1.21458,-2.40632 -5.07243,-5.44056 -6.91861,-5.44056 -0.32797,0 -0.43939,-0.15879 -0.32089,-0.45551 0.13107,-0.32602 0.27548,-30.72342 0.19454,-40.793631 -0.006,-0.527785 -2.97912,-0.796586 -3.48205,-0.314702 m 4.42593,45.482773 c 4.60167,2.33177 4.25801,8.50793 -0.58925,10.56488 -3.45851,1.4682 -8.02094,-1.60671 -8.02094,-5.40516 0,-4.12974 4.87549,-7.05105 8.61019,-5.15972 m 2.76649,86.3555 c 5.07321,1.82131 8.38109,6.1709 8.77101,11.5339 0.22983,3.15546 0.0478,3.03125 4.2949,2.9341 16.33222,-0.37568 20.69147,19.97859 5.34157,24.94105 -1.88226,0.60837 -2.21021,0.61438 -28.64023,0.53683 l -26.73522,-0.0783 -1.91518,-0.84852 c -8.68003,-3.84739 -6.52945,-16.06267 2.82767,-16.06267 1.69473,0 1.9984,-0.35916 1.78263,-2.10591 -0.90386,-7.32211 7.61925,-14.26547 14.82265,-12.07526 2.20472,0.67085 2.30827,0.63021 2.82767,-1.11205 1.90109,-6.37416 9.91892,-10.07022 16.62253,-7.66316 m -95.25504,10.13333 c 2.49737,5.75528 3.64054,8.05693 4.19606,8.44468 0.83402,0.58276 5.23484,1.11507 14.40129,1.74225 2.7814,0.18982 5.23408,0.39529 5.4514,0.45627 0.21648,0.0609 -2.91321,2.75492 -6.95546,5.98642 -4.04227,3.23151 -7.49528,6.13702 -7.67339,6.45623 -0.54922,0.98484 -0.37426,1.96212 1.95915,10.91275 1.24358,4.77197 2.21885,8.71724 2.16785,8.76693 -0.0519,0.0504 -3.85475,-2.03437 -8.4517,-4.63193 -6.52003,-3.68399 -8.59528,-4.72303 -9.43558,-4.72303 -0.95487,0 -12.82587,6.33125 -16.69315,8.90321 -1.37773,0.9163 -1.34244,0.65353 1.11962,-8.43111 2.54682,-9.39487 2.64568,-10.02732 1.7379,-11.13411 -0.50921,-0.62115 -10.29786,-8.54255 -13.78148,-11.15217 l -1.04822,-0.78529 1.05294,-0.15281 c 0.57902,-0.0836 3.12189,-0.30267 5.64988,-0.48715 7.60589,-0.55263 12.81956,-1.167 13.49275,-1.59016 0.40877,-0.25667 1.93013,-3.32184 4.2651,-8.59299 4.56871,-10.31344 4.12148,-9.48822 4.6707,-8.60733 0.24257,0.38926 1.98581,4.26827 3.87434,8.61937 m 176.28449,10.28104 c 7.95661,2.03362 11.96119,9.617 9.65292,18.27776 -2.03761,7.64358 -9.37282,11.19431 -14.23657,6.89216 -1.98736,-1.75805 -3.16035,-1.37255 -2.83868,0.93212 0.73597,5.26288 11.38456,5.53393 16.42558,0.41937 4.86061,-4.93159 6.1293,-14.69764 2.81593,-21.67488 -1.09059,-2.29488 -1.34164,-2.22639 4.81195,-1.30405 17.52951,2.62841 24.7902,12.9185 20.98098,29.73408 -0.99567,4.39701 -1.65865,8.52223 -2.24319,13.96956 -0.55548,5.17102 0.0424,4.70572 -6.04533,4.70572 h -5.17052 l -0.18356,-5.75075 c -0.2912,-9.10575 -0.10976,-8.95442 -10.69642,-8.95442 -10.15037,0 -9.76747,-0.32073 -10.46028,8.75866 -0.23784,3.11933 -0.48802,5.72442 -0.55705,5.7899 -0.0682,0.0654 -2.46207,0.14598 -5.3196,0.17841 l -5.19639,0.0587 -0.36406,-0.85758 c -0.20076,-0.47208 -0.59238,-3.69002 -0.87012,-7.15042 -0.69357,-8.64874 -1.25691,-9.62676 -5.37136,-9.3128 -3.8414,0.29364 -5.10227,0.8568 -7.68909,3.43855 -5.75738,5.74474 -16.22315,5.38938 -17.59305,-0.59704 -0.30757,-1.34395 -0.12722,-1.37633 2.65746,-0.47133 7.76828,2.52452 10.66033,-1.04504 10.829,-13.36425 0.12544,-9.19984 1.32364,-13.15793 5.23956,-17.31023 4.79469,-5.08368 14.84148,-8.08933 21.42191,-6.40732 m -18.36275,18.44643 c -1.19495,1.36275 -1.14551,3.80297 0.10207,5.00008 2.19843,2.10891 4.99318,0.14769 4.47848,-3.14418 -0.42213,-2.7007 -2.94382,-3.7224 -4.5805,-1.8559"
       stroke="none"
       fill="#1b1b1b"
       fill-rule="evenodd"
       sodipodi:nodetypes="cccsccsccscccccccsssssccsscsccsccccccccccscccccccccsccscsscccccscccscscscssscsccsccccscccccccscscscccccsccccssccsccccccccsccscssccscccccccccscsccccsccsccscccccsccccccsc"
       style="stroke-width:0.768593" />
    <path
       id="path7"
       d="m 305.58134,34.981653 c 0.60633,0.05221 1.5974,0.05221 2.20308,0 0.60566,-0.05221 0.11007,-0.09549 -1.10121,-0.09549 -1.21199,0 -1.70755,0.04328 -1.10187,0.09549 m -5.83046,0.238075 c 0.24947,0.06239 0.65808,0.06239 0.9075,0 0.24947,-0.06239 0.0451,-0.113948 -0.45374,-0.113948 -0.49887,0 -0.70319,0.05156 -0.45376,0.113948 m 19.43505,0 c 0.24947,0.06239 0.6574,0.06239 0.90685,0 0.24948,-0.06239 0.0456,-0.113948 -0.45309,-0.113948 -0.49887,0 -0.70318,0.05156 -0.45376,0.113948 m -14.25206,4.240967 c 1.10452,0.04648 2.91223,0.04648 4.01678,0 1.10453,-0.04711 0.20033,-0.08529 -2.00872,-0.08529 -2.20907,0 -3.11259,0.03821 -2.00806,0.08529 m 82.92584,25.357336 c 0.39404,0.05726 0.97716,0.05606 1.29558,-0.0024 0.3191,-0.05919 -0.003,-0.105624 -0.71578,-0.103699 -0.71246,0.0019 -0.97319,0.05028 -0.5798,0.106827 M 331.90159,227.2697 c 0,0.88869 0.0471,1.25281 0.10481,0.80785 0.0572,-0.44435 0.0572,-1.17197 0,-1.61632 -0.0577,-0.44434 -0.10481,-0.0808 -0.10481,0.80847"
       stroke="none"
       fill="#fcc899"
       fill-rule="evenodd"
       style="stroke-width:0.649847" />
    <path
       id="path0-1"
       d="m 97.763326,51.537672 c -48.949283,3.546557 -78.301049,40.988425 -63.550343,81.064848 1.940219,5.27123 0.834434,9.71138 -2.95355,11.85563 -7.801052,4.41503 -7.969049,14.4297 -0.31556,18.81343 2.17011,1.24315 2.237428,1.97626 0.429812,4.66866 -1.995328,2.97121 -1.130948,6.01317 2.332633,8.20979 0.911287,0.57738 1.302338,1.0643 1.760707,2.19255 0.324376,0.7977 1.174464,2.24626 1.889223,3.21942 2.0409,2.77811 2.391802,3.4806 2.755634,5.51672 1.991934,11.14702 12.233084,16.5148 33.211821,17.40704 l 4.383042,0.18635 -5.578584,2.09323 c -10.152063,3.80907 -14.314081,5.50585 -17.134333,6.98703 -16.613403,8.72257 -26.45263,23.21822 -30.408585,44.79883 -0.805877,4.39597 -0.795005,4.04371 -0.141369,4.69723 1.07926,1.07926 2.654979,0.0231 2.658372,-1.78108 0.01285,-6.56948 4.767283,-19.87229 9.761038,-27.30747 8.504938,-12.66493 16.429084,-17.83684 39.112081,-25.53045 6.054661,-2.05383 9.057842,-3.9757 8.663406,-5.5453 -0.305366,-1.21868 -1.247237,-1.38801 -8.658625,-1.55394 -21.104579,-0.47197 -30.90029,-4.97811 -32.947976,-15.156 -0.593002,-2.95083 -0.717458,-3.23032 -2.304076,-5.1835 -1.476427,-1.81646 -2.291147,-3.24462 -2.863073,-5.01686 -0.399893,-1.24181 -0.597783,-1.47642 -1.721946,-2.04565 -2.744735,-1.39141 -3.228267,-2.86171 -1.749115,-5.31814 2.009593,-3.33709 1.428131,-6.36952 -1.50907,-7.86769 -6.27841,-3.20313 -6.110438,-10.29011 0.333217,-14.05364 5.397709,-3.1521 6.094092,-7.77452 2.780129,-18.4482 -6.74765,-21.73634 -0.483532,-43.117029 16.737165,-57.129179 33.105721,-26.93682 93.869859,-21.050828 112.239179,10.871608 9.20199,15.99112 10.4676,38.505481 3.33504,59.320991 -2.9508,8.61241 -6.19132,14.75547 -13.70269,25.97727 -6.11653,9.13807 -8.22883,15.08051 -8.22883,23.14952 0,11.04227 4.85706,16.10471 20.72099,21.59626 13.53407,4.68501 17.86067,6.82857 23.10195,11.44693 8.34445,7.35357 14.84451,21.07802 17.02413,35.94703 0.61072,4.16612 1.39416,5.14268 2.90934,3.62749 0.66105,-0.66101 0.66716,-0.45019 -0.14959,-5.05767 -4.60407,-25.98745 -14.65886,-39.0087 -35.97901,-46.59557 -9.66241,-3.43842 -11.59858,-4.19057 -14.74387,-5.72753 -7.26858,-3.55131 -9.64814,-7.0965 -9.895,-14.74321 -0.29449,-9.0966 1.13707,-12.57039 11.87739,-28.82332 15.41102,-23.32024 18.96506,-53.53705 8.98438,-76.375115 C 160.25018,63.094064 130.84672,49.140432 97.763428,51.537672 m 17.135022,77.155138 c -3.67848,0.99698 -7.83711,3.66558 -7.83711,5.02843 0,1.72806 1.46962,1.84298 3.69548,0.28766 9.15506,-6.39331 19.11945,-1.07994 19.17997,10.22757 0.0645,11.93723 -12.02225,22.5939 -19.4282,17.13024 -2.11841,-1.56349 -3.80224,0.71067 -1.78653,2.41288 6.60754,5.57928 18.55089,-0.38424 22.79182,-11.38095 5.36641,-13.91624 -3.90971,-27.15106 -16.61543,-23.70583 m -69.468334,13.95025 c -2.406761,2.40609 5.347381,6.41032 10.895378,5.62552 4.98152,-0.70456 9.251673,-3.45474 8.254691,-5.31745 -0.535222,-0.99969 -1.258823,-0.95618 -3.158251,0.18841 -4.858401,2.92906 -8.999343,2.90932 -13.321855,-0.0645 -1.613118,-1.10921 -1.93955,-1.16223 -2.669963,-0.43184"
       stroke="none"
       fill="#161615"
       fill-rule="evenodd"
       style="stroke-width:0.680067"
       sodipodi:nodetypes="cscccccccscccscccccccccccccccccssscsscsccccccscccccccccccc" />
    <path
       id="path4-8"
       d="m 122.71074,50.285314 c -1.4608,0.113583 -3.25416,0.229172 -3.98454,0.257067 -1.49341,0.05575 -0.98541,0.491009 0.61344,0.525012 0.48353,0.0103 0.82014,0.112892 0.74873,0.228503 -0.0714,0.115614 0.29653,0.160492 0.81745,0.09996 0.53452,-0.06256 0.88206,-0.0049 0.79704,0.132604 -0.0844,0.137384 0.2632,0.195191 0.79705,0.132604 0.55358,-0.06461 0.88271,-0.0062 0.79226,0.140777 -0.0897,0.145533 0.18969,0.199946 0.6658,0.129905 0.4815,-0.07004 0.75624,-0.01568 0.66443,0.133297 -0.0918,0.148257 0.18224,0.20334 0.66373,0.132605 0.62159,-0.09112 0.76919,-0.0374 0.60935,0.221716 -0.14341,0.231896 -0.10665,0.277468 0.11288,0.14214 0.45156,-0.279509 4.30077,0.656264 4.09198,0.994258 -0.0959,0.155069 -0.034,0.187018 0.14677,0.0755 0.41618,-0.257065 1.94021,0.08772 1.7498,0.395801 -0.0815,0.131935 0.0298,0.172058 0.24881,0.08842 0.55834,-0.214907 6.03629,1.753884 5.82614,2.093247 -0.0971,0.157047 -0.038,0.191747 0.14086,0.08173 0.43456,-0.268626 1.41183,0.08636 1.19692,0.434567 -0.0992,0.159874 -0.055,0.211539 0.0987,0.11695 0.40671,-0.251636 1.96132,0.355683 1.75662,0.686871 -0.1028,0.166558 -0.0463,0.202029 0.13881,0.08764 0.40668,-0.250865 5.91046,2.50266 5.69557,2.85017 -0.0897,0.145482 -0.0314,0.183009 0.13134,0.08302 0.36722,-0.227218 2.79642,1.25268 2.51556,1.533542 -0.11209,0.112325 -0.085,0.18018 0.0611,0.150878 0.59302,-0.119778 0.95006,0.02647 0.7712,0.316254 -0.11773,0.190462 -0.0728,0.233901 0.11976,0.115665 0.37132,-0.229788 1.69677,0.743985 1.42475,1.045922 -0.10484,0.115666 -0.0591,0.1352 0.10201,0.04421 0.34139,-0.194575 2.12996,1.062268 2.03203,1.427462 -0.0368,0.135971 0.0231,0.222335 0.13264,0.190976 0.37676,-0.106665 1.40907,0.614799 1.24928,0.873221 -0.0876,0.142911 -0.0414,0.226447 0.1028,0.18635 0.38696,-0.107446 2.70327,1.885137 2.62915,2.261229 -0.0348,0.17761 0.0699,0.297876 0.23184,0.267931 0.16194,-0.0293 0.63246,0.299239 1.04595,0.731081 0.4128,0.431175 0.65424,0.784133 0.5359,0.784133 -0.11772,0 -0.0674,0.178124 0.11361,0.395781 0.18018,0.217707 0.42436,0.335969 0.54201,0.263202 0.3033,-0.187121 3.19086,3.358172 2.99434,3.676456 -0.0897,0.144197 -0.0306,0.180948 0.13057,0.08174 0.34275,-0.211541 0.92352,0.725638 0.64266,1.036416 -0.10405,0.115665 -0.064,0.139306 0.0897,0.05163 0.31351,-0.177359 2.59854,3.04058 2.59854,3.660132 0,0.21899 0.0591,0.338663 0.13185,0.266599 0.22851,-0.229282 1.12823,1.477781 0.93984,1.782445 -0.11617,0.18764 -0.055,0.213601 0.17196,0.07348 0.25776,-0.159097 0.30469,-0.09511 0.17684,0.238022 -0.11771,0.307381 -0.0748,0.394436 0.13264,0.265898 0.20742,-0.127747 0.25086,-0.04144 0.13339,0.265897 -0.11823,0.306724 -0.0748,0.393779 0.13263,0.26524 0.20743,-0.127746 0.25087,-0.04133 0.13264,0.265897 -0.11773,0.307393 -0.074,0.39378 0.13339,0.265898 0.20743,-0.128516 0.25036,-0.04212 0.13263,0.26524 -0.11772,0.307381 -0.0748,0.393768 0.13264,0.265897 0.20742,-0.128516 0.25086,-0.04144 0.13339,0.26523 -0.0967,0.250873 -0.0769,0.395115 0.0435,0.32099 0.3108,-0.19175 1.45262,2.680167 1.21664,3.061684 -0.11084,0.179409 -0.0823,0.246231 0.0666,0.153708 0.32235,-0.1992 2.03884,4.765249 1.83278,5.302501 -0.0917,0.240841 -0.0346,0.314197 0.15448,0.19792 0.20537,-0.127237 0.25912,0.03397 0.16784,0.509388 -0.0815,0.425718 -0.0298,0.63179 0.13263,0.531126 0.16244,-0.100766 0.21411,0.105408 0.1334,0.531138 -0.0735,0.382876 -0.0463,0.641969 0.0603,0.576018 0.26047,-0.161169 0.58622,1.949064 0.35841,2.318334 -0.10201,0.16527 -0.0579,0.21565 0.10201,0.11618 0.33867,-0.20948 0.74195,2.299291 0.44681,2.777411 -0.13135,0.21205 -0.0844,0.2488 0.14085,0.11028 0.25773,-0.15911 0.3135,0.0463 0.23519,0.8664 -0.0565,0.59098 0.002,1.00989 0.13134,0.93101 0.12852,-0.0794 0.19046,0.39716 0.13725,1.05954 -0.053,0.6658 0.0102,1.13842 0.14215,1.05681 0.13596,-0.0843 0.17967,0.69233 0.10122,1.81852 -0.0844,1.21732 -0.0488,1.76344 0.0931,1.43427 0.34751,-0.80454 0.0707,13.95637 -0.31554,16.79225 -0.183,1.34586 -0.40874,2.40065 -0.50121,2.34351 -0.0931,-0.0579 -0.11901,0.32168 -0.0579,0.84261 0.0756,0.65083 0.018,0.89021 -0.18558,0.76508 -0.1884,-0.11695 -0.23801,-0.0319 -0.13673,0.23185 0.24084,0.6277 -0.438,3.89 -0.76713,3.68666 -0.16245,-0.10077 -0.19791,-0.0429 -0.085,0.13931 0.22851,0.36929 -0.37267,3.25821 -0.64332,3.09091 -0.10281,-0.064 -0.12724,0.19714 -0.0537,0.5801 0.085,0.44611 0.0326,0.63312 -0.14703,0.52229 -0.17683,-0.10948 -0.22439,0.0373 -0.12928,0.40056 0.10201,0.39036 0.0524,0.51346 -0.15448,0.38561 -0.19252,-0.11901 -0.25035,-0.0476 -0.15705,0.19509 0.18764,0.48964 -1.49817,5.5099 -1.78924,5.3297 -0.11977,-0.074 -0.15498,0.0285 -0.0781,0.2285 0.18635,0.48625 -1.3173,3.97772 -1.60155,3.7193 -0.12312,-0.11153 -0.14703,-0.0686 -0.053,0.0951 0.21617,0.37949 -1.15069,3.58329 -1.44989,3.3983 -0.12236,-0.0755 -0.1442,0.0674 -0.0483,0.31828 0.11824,0.30739 0.0748,0.39375 -0.13264,0.26521 -0.20742,-0.12775 -0.25086,-0.0414 -0.13262,0.26593 0.11772,0.30738 0.074,0.39375 -0.1334,0.2659 -0.20743,-0.12852 -0.25035,-0.0414 -0.13264,0.26523 0.11773,0.30739 0.0748,0.39375 -0.13262,0.26591 -0.20743,-0.12852 -0.25086,-0.0414 -0.1334,0.26589 0.11824,0.30673 0.0748,0.39376 -0.13263,0.26524 -0.20742,-0.12774 -0.25087,-0.0413 -0.13263,0.2659 0.12775,0.33391 0.0802,0.39783 -0.17684,0.23801 -0.23184,-0.1429 -0.28834,-0.11412 -0.16605,0.0838 0.23544,0.38151 -1.79741,4.10215 -2.09461,3.83286 -0.12107,-0.11028 -0.13392,-0.0504 -0.0293,0.13185 0.23056,0.40056 -0.46109,1.47371 -0.76984,1.19421 -0.11977,-0.10869 -0.1334,-0.0504 -0.0293,0.1298 0.2285,0.39853 -0.99154,2.27416 -1.29826,1.99533 -0.12028,-0.10869 -0.14291,-0.0645 -0.0504,0.0979 0.21025,0.36792 -1.51112,2.83657 -1.78656,2.5618 -0.11027,-0.11027 -0.17607,-0.081 -0.14677,0.0645 0.1149,0.56922 -0.0206,0.95346 -0.28152,0.79295 -0.14959,-0.0925 -0.25498,-0.0694 -0.2339,0.051 0.0987,0.5658 -0.053,0.89699 -0.33188,0.72493 -0.18841,-0.11617 -0.23467,-0.0727 -0.11978,0.11232 0.23185,0.37539 -0.99971,2.24287 -1.29961,1.97016 -0.1203,-0.10869 -0.14214,-0.064 -0.0488,0.1 0.22978,0.40192 -2.03749,3.89136 -2.35713,3.62816 -0.13804,-0.1136 -0.16322,-0.0992 -0.0565,0.0319 0.22773,0.2802 -0.85347,2.3197 -1.13706,2.14425 -0.10621,-0.0653 -0.18095,0.0293 -0.16656,0.21025 0.0354,0.45089 -1.84435,4.19398 -2.01843,4.01989 -0.0769,-0.0769 -0.13341,0.018 -0.12441,0.20999 0.0376,0.85962 -0.0892,1.29825 -0.33119,1.14866 -0.1442,-0.0892 -0.20537,-0.008 -0.1352,0.18352 0.14625,0.39853 -0.76372,3.47857 -0.96773,3.27454 -0.0748,-0.074 -0.0802,0.23929 -0.0129,0.69707 0.0931,0.63179 0.0401,0.78141 -0.21976,0.62089 -0.21694,-0.1334 -0.27747,-0.1062 -0.16528,0.0761 0.27544,0.44477 -0.13056,4.14706 -0.4087,3.73085 -0.15294,-0.22928 -0.18635,-0.1203 -0.0959,0.3142 0.0761,0.36519 0.16939,1.93615 0.20742,3.49146 0.038,1.55465 0.14549,2.7808 0.2393,2.72505 0.25087,-0.15037 0.55085,1.71105 0.33255,2.064 -0.11437,0.18558 -0.0682,0.22928 0.1203,0.11288 0.28494,-0.17607 0.41145,0.19175 0.37812,1.10103 -0.006,0.18095 0.0815,0.27135 0.19663,0.20048 0.2863,-0.17761 0.57126,0.64267 0.3543,1.02146 -0.0971,0.16938 -0.0815,0.22233 0.0348,0.11772 0.11566,-0.10485 0.44952,0.11412 0.74195,0.48556 l 0.5318,0.67601 0.39853,-0.8229 c 1.27037,-2.62304 3.17387,-3.36908 9.5162,-3.72882 15.65518,-0.88885 23.01421,-4.95702 26.59613,-14.7024 1.41045,-3.83968 1.72667,-4.46056 3.02154,-5.94109 1.44378,-1.65051 1.83822,-2.80459 1.83822,-5.37796 0,-2.22655 0.14959,-2.5727 1.97695,-4.55579 2.05859,-2.23607 2.46187,-4.15249 1.47642,-7.01831 -0.76505,-2.22381 -0.42027,-2.71211 3.32487,-4.70403 7.92212,-4.21437 8.56411,-9.32781 2.11025,-16.81402 -7.19376,-8.34375 -8.34306,-11.72572 -7.82894,-23.04479 0.87934,-19.375162 -3.80906,-31.860522 -16.63516,-44.301033 -3.4391,-3.335734 -9.52027,-8.084663 -9.98409,-7.798354 -0.15986,0.09922 -0.22156,0.06811 -0.13673,-0.06863 0.43523,-0.705223 -10.25071,-5.928147 -15.37433,-7.514746 -7.66028,-2.372759 -19.73424,-3.462228 -29.72579,-2.68287"
       stroke="none"
       fill="#e1d2cd"
       fill-rule="evenodd"
       style="stroke-width:0.680067" />
    <path
       id="path7-1"
       d=""
       stroke="none"
       fill="#bcb2af"
       fill-rule="evenodd"
       style="stroke-width:0.264583" />
    <path
       style="fill:#000000;stroke:#000000;stroke-width:4;stroke-linecap:butt;stroke-linejoin:miter;stroke-opacity:1;marker-start:url(#marker11532);marker-end:url(#marker11446);stroke-miterlimit:4;stroke-dasharray:none;fill-opacity:1"
       d="m 29.22633,27.925146 h 145.17364 20.78567"
       id="path8102"
       sodipodi:nodetypes="ccc" />
    <path
       style="fill:none;fill-opacity:1;stroke:#000000;stroke-width:4;stroke-miterlimit:4;stroke-dasharray:none;stroke-opacity:1;marker-start:url(#Arrow2Sstart);marker-end:url(#Arrow2Send)"
       id="path10943"
       sodipodi:type="arc"
       sodipodi:cx="-398.24295"
       sodipodi:cy="-47.880306"
       sodipodi:rx="42.941319"
       sodipodi:ry="34.510712"
       sodipodi:start="5.5986581"
       sodipodi:end="3.7436641"
       sodipodi:arc-type="arc"
       d="m -364.97553,-69.701664 a 42.941319,34.510712 0 0 1 -3.09028,46.373449 42.941319,34.510712 0 0 1 -57.73559,1.914077 42.941319,34.510712 0 0 1 -7.83225,-46.011341"
       sodipodi:open="true"
       transform="scale(-1)" />
  </g>
</svg>
